<mxfile host="app.diagrams.net" modified="2023-12-23T01:34:46.620Z" agent="Mozilla/5.0 (Windows NT 10.0; Win64; x64) AppleWebKit/537.36 (KHTML, like Gecko) Chrome/120.0.0.0 Safari/537.36" version="22.1.11" etag="iyPw9cTdRbV1h0qNpYVd" type="github">
  <diagram name="PÃ¡gina-1" id="oEyC9UfiI3NPHXeDVx-9">
    <mxGraphModel>
      <root>
        <mxCell id="0" />
        <mxCell id="1" parent="0" />
      </root>
    </mxGraphModel>
  </diagram>
</mxfile>
